<svg xmlns="http://www.w3.org/2000/svg" viewBox="0 0 643.9 643.9"><defs><style>.cls-1,.cls-5{fill:none;}.cls-2{fill:#019a3f;}.cls-3{fill:#d68742;}.cls-4{fill:#ffe9cf;}.cls-5{stroke:#fff;stroke-miterlimit:10;}</style></defs><title>資產 1</title><g id="圖層_2" data-name="圖層 2"><g id="圖層_3" data-name="圖層 3"><rect class="cls-1" width="643.9" height="643.9"/></g><g id="圖層_2-2" data-name="圖層 2"><path class="cls-2" d="M643.9,286C575.46,160.54,456.54,77.56,321.3,77.56c-134.39,0-252.66,81.94-321.3,206l321.3,319.3Z"/><path class="cls-3" d="M322,553.11,515.22,359.83S439.84,261.56,322,261.56,128.5,360.22,128.5,360.22Z"/><rect class="cls-2" x="250.37" y="361.76" width="143.15" height="143.15" transform="translate(400.71 -100.73) rotate(45)"/></g><g id="圖層_1-2" data-name="圖層 1"><rect class="cls-4" x="414.8" y="420.82" width="11.84" height="11.84" transform="translate(424.98 -172.51) rotate(45)"/><rect class="cls-4" x="316.03" y="322.05" width="11.84" height="11.84" transform="translate(326.2 -131.59) rotate(45)"/><rect class="cls-4" x="217.25" y="420.82" width="11.84" height="11.84" transform="translate(367.12 -32.82) rotate(45)"/><line class="cls-5" x1="338.8" y1="517.48" x2="615.39" y2="240.89"/><line class="cls-5" x1="306.43" y1="518.44" x2="29.83" y2="241.85"/><circle class="cls-3" cx="321.95" cy="431.33" r="12.91"/><circle class="cls-3" cx="321.95" cy="533.89" r="37.33"/><polygon class="cls-4" points="313.58 533.89 321.95 542.26 330.32 533.89 330.32 525.52 313.58 525.52 313.58 533.89"/></g></g></svg>